<svg aria-hidden="true" style="position: absolute; width: 0; height: 0; overflow: hidden;" version="1.1" xmlns="http://www.w3.org/2000/svg" xmlns:xlink="http://www.w3.org/1999/xlink">
<defs>
<symbol id="festivals" viewBox="0 0 32 32">
<path d="M26 14h-2v2h2c1.656 0.002 2.998 1.344 3 3v4h2v-4c-0.003-2.76-2.24-4.997-5-5h-0z"></path>
<path d="M24 4c1.657 0 3 1.343 3 3s-1.343 3-3 3c-1.657 0-3-1.343-3-3v0c0-1.657 1.343-3 3-3v0zM24 2c-2.761 0-5 2.239-5 5s2.239 5 5 5c2.761 0 5-2.239 5-5v0c0-2.761-2.239-5-5-5v0z"></path>
<path d="M23 30h-2v-2c-0.002-1.656-1.344-2.998-3-3h-4c-1.656 0.002-2.998 1.344-3 3v2h-2v-2c0.003-2.76 2.24-4.997 5-5h4c2.76 0.003 4.997 2.24 5 5v0z"></path>
<path d="M16 13c1.657 0 3 1.343 3 3s-1.343 3-3 3c-1.657 0-3-1.343-3-3v0c0-1.657 1.343-3 3-3v0zM16 11c-2.761 0-5 2.239-5 5s2.239 5 5 5c2.761 0 5-2.239 5-5v0c0-2.761-2.239-5-5-5v0z"></path>
<path d="M8 14h-2c-2.76 0.003-4.997 2.24-5 5v4h2v-4c0.002-1.656 1.344-2.998 3-3h2z"></path>
<path d="M8 4c1.657 0 3 1.343 3 3s-1.343 3-3 3c-1.657 0-3-1.343-3-3v0c0-1.657 1.343-3 3-3v0zM8 2c-2.761 0-5 2.239-5 5s2.239 5 5 5c2.761 0 5-2.239 5-5v0c0-2.761-2.239-5-5-5v0z"></path>
</symbol>
<symbol id="dancing" viewBox="0 0 32 32">
<path d="M24.964 20.456c-0.61-0.761-1.538-0.847-2.297-0.239-0.897 0.719-2.211 1.642-3.293 2.244-0.355-1.184-0.508-2.765-0.794-4.043l0.024-7.309c0 0 3.968-0.524 5.113-0.698 1.22-0.114 1.407-1.187 1.147-1.94-0.063-0.183-1.657-4.747-1.935-5.628-0.273-0.865-1.008-1.379-1.952-1.114-0.875 0.246-1.138 1.090-0.871 1.956 0.372 1.212 1.363 4.14 1.363 4.14l-3.476 0.469-5.62-1.209c-1.431-1.519-2.352-3.213-2.686-5.663-0.123-0.899-0.691-1.529-1.717-1.406-0.901 0.108-1.426 0.951-1.303 1.85 0.504 3.698 2.169 6.826 4.714 8.907v7.236c-1.747 4.467-1.768 9.077 0.808 13.17 0.335 0.532 0.907 0.823 1.491 0.823 0.321 0 0.645-0.089 0.937-0.271 0.822-0.519 1.070-1.605 0.552-2.428-1.427-2.266-2.088-5.016-1.375-8.217 0.115-0.515 0.581-0.876 1.108-0.857h0.002c0.497 0.018 0.918 0.367 1.028 0.851 0.314 1.37 0.469 2.704 0.706 3.537 0.465 1.629 2.089 1.917 3.123 1.374 2.102-1.105 3.415-1.898 4.929-3.058 0.773-0.591 0.883-1.716 0.276-2.474z"></path>
<path d="M18.385 4.185c0 1.491-1.209 2.699-2.699 2.699s-2.699-1.209-2.699-2.699c0-1.491 1.209-2.699 2.699-2.699s2.699 1.209 2.699 2.699z"></path>
</symbol>
<symbol id="scooter" viewBox="0 0 32 32">
<path d="M28.987 24.699l-0.602-2.067c0.16-0.015 0.321-0.023 0.484-0.023 0.576 0 1.044-0.467 1.044-1.044s-0.467-1.044-1.044-1.044c-0.364 0-0.723 0.029-1.075 0.081l-4.947-16.979 2.101-0.525c0.559-0.14 0.899-0.706 0.759-1.265s-0.707-0.899-1.265-0.759l-8.348 2.087c-0.559 0.14-0.899 0.706-0.759 1.265s0.707 0.899 1.265 0.759l4.221-1.055 4.975 17.074c-0.752 0.351-1.439 0.826-2.032 1.403h-15.529c-1.334-1.303-3.152-2.087-5.105-2.087-0.576 0-1.043 0.467-1.043 1.044s0.467 1.044 1.043 1.044c2.34 0 4.409 1.576 5.031 3.832 0.032 0.117 0.071 0.231 0.113 0.342h-2.193c-0.431-1.215-1.591-2.087-2.951-2.087-1.726 0-3.13 1.404-3.13 3.13s1.404 3.13 3.13 3.13c1.36 0 2.52-0.872 2.951-2.087 0.261 0 14.453 0 14.714 0 1.42 0 2.643-0.976 3.044-2.429 0.386-1.401 1.33-2.539 2.55-3.201l0.606 2.081c-0.762 0.572-1.256 1.482-1.256 2.505 0 1.726 1.404 3.13 3.13 3.13s3.13-1.404 3.13-3.13c0-1.687-1.341-3.065-3.013-3.127zM3.13 28.87c-0.575 0-1.043-0.468-1.043-1.044s0.468-1.044 1.043-1.044 1.043 0.468 1.043 1.044c0 0.575-0.468 1.044-1.043 1.044zM21.827 25.886c-0.114 0.414-0.453 0.896-1.032 0.896h-9.59c-0.579 0-0.918-0.483-1.032-0.896s-0.264-0.812-0.444-1.191h12.542c-0.18 0.379-0.33 0.776-0.444 1.191zM28.87 28.87c-0.575 0-1.044-0.468-1.044-1.044s0.468-1.044 1.044-1.044 1.044 0.468 1.044 1.044c0 0.575-0.468 1.044-1.044 1.044z"></path>
</symbol>
<symbol id="tennis" viewBox="0 0 32 32">
<path d="M27.611 4.995c-0.036-0.038-0.074-0.073-0.113-0.107-6.298-6.516-16.699-6.519-23 0-0.039 0.034-0.077 0.069-0.113 0.107-5.77 6.088-5.919 15.765 0 22.009 0.037 0.039 0.077 0.076 0.118 0.111 6.297 6.51 16.691 6.514 22.992 0 0.041-0.035 0.080-0.072 0.118-0.111 5.81-6.13 5.891-15.794 0-22.009zM5.334 23.307c-3.044-4.429-3.007-10.24 0-14.615 2.375 4.465 2.462 9.985 0 14.615zM24.512 25.725c-4.875 4.274-12.146 4.281-17.029 0 3.638-5.944 3.651-13.486 0-19.45 4.875-4.274 12.146-4.281 17.029 0-3.638 5.944-3.651 13.486 0 19.45zM26.662 23.307c-2.368-4.453-2.468-9.973 0-14.615 3.020 4.394 3.033 10.202 0 14.615z"></path>
</symbol>
<symbol id="gym" viewBox="0 0 32 32">
<path d="M1.886 9.494c-1.040 0-1.886 0.846-1.886 1.886v9.24c0 1.040 0.846 1.886 1.886 1.886h1.266v-13.013h-1.266z"></path>
<path d="M26.073 7.526h-4.115c-1.040 0-1.886 0.846-1.886 1.886v5.456h-8.143v-5.456c0-1.040-0.846-1.886-1.886-1.886h-4.115c-1.040 0-1.886 0.846-1.886 1.886v13.176c0 1.040 0.846 1.886 1.886 1.886h4.115c1.040 0 1.886-0.846 1.886-1.886v-5.456h8.143v5.456c0 1.040 0.846 1.886 1.886 1.886h4.115c1.040 0 1.886-0.846 1.886-1.886v-13.176c0-1.040-0.846-1.886-1.886-1.886z"></path>
<path d="M30.114 9.494h-1.266v13.013h1.266c1.040 0 1.886-0.846 1.886-1.886v-9.24c0-1.040-0.846-1.886-1.886-1.886z"></path>
</symbol>
<symbol id="music" viewBox="0 0 32 32">
<path d="M30.058 21.594c-1.072 0-1.942 0.87-1.942 1.942 0 0.123 0.012 0.244 0.034 0.361-0.836 0.060-1.913-0.194-2.391-0.466-1.039-0.591-1.447-2.036-1.807-3.311l-0.054-0.191c-0.219-0.77-0.449-1.56-0.671-2.324-0.247-0.848-0.501-1.724-0.742-2.575-0.28-0.99-0.434-2.047-0.584-3.070-0.109-0.746-0.221-1.517-0.383-2.268-0.117-0.546-0.276-1.094-0.474-1.638-0.11-0.827-0.318-1.643-0.69-2.446-0.706-1.525-1.964-3.021-3.738-4.446-1.678-1.349-4.487-1.189-6.434-0.257-1.362 0.548-2.434 1.887-3.128 2.858-0.020 0.028-0.041 0.055-0.061 0.082h-4.697c-1.269 0-2.297 1.028-2.297 2.298v19.988c0 1.269 1.029 2.297 2.297 2.297h11.214c1.269 0 2.297-1.029 2.297-2.297v-19.988c0-1.269-1.029-2.297-2.297-2.297h-4.702c0.475-0.609 1.055-1.253 1.646-1.588 0.084-0.048 0.172-0.094 0.262-0.138 0.012-0.004 0.024-0.009 0.036-0.013 1.011-0.369 2.453-0.589 3.393-0.248 1.857 0.674 3.507 2.832 4.129 3.728 0.616 0.887 1.115 1.832 1.478 2.792 0.104 0.894 0.086 1.828 0.047 2.817-0.069 1.749-0.576 3.432-1.113 5.214-0.572 1.899-1.164 3.863-1.184 5.927-0.017 1.813-0.058 6.057 1.874 7.818 0.581 0.529 1.28 0.796 2.082 0.796 0.072 0 0.144-0.003 0.217-0.007 0.347 0.53 0.945 0.881 1.626 0.881 1.072 0 1.942-0.869 1.942-1.942s-0.869-1.942-1.942-1.942c-0.984 0-1.797 0.733-1.924 1.682-0.433-0.017-0.799-0.165-1.109-0.448-1.495-1.362-1.456-5.332-1.442-6.826 0.018-1.876 0.557-3.664 1.127-5.558 0.314-1.042 0.634-2.105 0.861-3.191 0.104 0.599 0.228 1.2 0.395 1.792 0.242 0.856 0.497 1.735 0.745 2.585 0.222 0.762 0.451 1.549 0.669 2.316l0.053 0.189c0.408 1.445 0.916 3.243 2.427 4.102 0.769 0.438 2.54 0.861 3.818 0.529 0.319 0.231 0.712 0.367 1.136 0.367 1.072 0 1.942-0.869 1.942-1.942s-0.869-1.942-1.942-1.942zM8.026 26.438c-1.872 0-3.395-1.522-3.395-3.394s1.523-3.395 3.395-3.395c1.872 0 3.395 1.523 3.395 3.395s-1.523 3.394-3.395 3.394zM13.329 6.538c0.151 0 0.274 0.122 0.274 0.274v10.424c0 0.151-0.122 0.274-0.274 0.274h-10.853c-0.151 0-0.274-0.122-0.274-0.274v-10.424c0-0.151 0.123-0.274 0.274-0.274h10.853z"></path>
<path d="M8.026 20.22c-1.556 0-2.824 1.267-2.824 2.824s1.267 2.823 2.824 2.823c1.557 0 2.824-1.267 2.824-2.823s-1.267-2.824-2.824-2.824zM9.315 23.153l-1.677 1.219c-0.043 0.025-0.097 0.025-0.141 0s-0.070-0.072-0.070-0.122v-2.437c0-0.050 0.027-0.097 0.070-0.122 0.022-0.013 0.046-0.019 0.070-0.019s0.049 0.006 0.070 0.019l1.677 1.219c0.044 0.025 0.070 0.072 0.070 0.122s-0.027 0.096-0.070 0.122z"></path>
</symbol>
<symbol id="party" viewBox="0 0 32 32">
<path d="M9.6 12.8c-0.442 0-0.8-0.358-0.8-0.8s0.358-0.8 0.8-0.8h12.8c0.442 0 0.8 0.358 0.8 0.8s-0.358 0.8-0.8 0.8h-12.8z"></path>
<path d="M4.428 9.089l10.4 11.2c0.633 0.682 1.712 0.682 2.345 0l10.4-11.2c0.951-1.024 0.225-2.689-1.172-2.689h-20.8c-1.397 0-2.123 1.665-1.172 2.689zM22.731 9.6l-6.731 7.249-6.731-7.249h13.462z"></path>
<path d="M17.6 18.4v11.2h-3.2v-11.2h3.2z"></path>
<path d="M23.2 32h-14.4c0-2.36 3.28-4 7.2-4s7.2 1.64 7.2 4z"></path>
<path d="M20.509 2.764c-0.643-0.161-1.034-0.812-0.873-1.455s0.812-1.034 1.455-0.873l6.4 1.6c0.643 0.161 1.034 0.812 0.873 1.455s-0.812 1.034-1.455 0.873l-6.4-1.6z"></path>
<path d="M17.938 13.979c-0.21 0.629-0.889 0.969-1.518 0.759s-0.968-0.889-0.759-1.518l4-12c0.21-0.629 0.889-0.969 1.518-0.759s0.968 0.889 0.759 1.518l-4 12z"></path>
</symbol>
<symbol id="reading" viewBox="0 0 32 32">
<path d="M17.485 20.812h9.443v1.372h-9.443v-1.372zM17.485 18.912h9.443v-1.372h-9.443v1.372zM22.203 14.193h-4.718v1.371h4.718v-1.371zM22.203 10.513h-4.718v1.372h4.718v-1.372zM17.485 25.436h9.443v-1.372h-9.443v1.372zM32 5.963v22.909h-16.4v0.032l-0.139-0.032h-15.462v-22.909h1.367v-2.866l13 2.866h17.633zM30.808 16.608h-1.613v1.618h1.613v-1.618zM2.74 7.607v17.054l11.489 2.536v-19.861l-11.489-2.534v2.806zM7.998 27.228l-5.944-1.313v1.313h5.944zM15.6 27.228h12.405v-19.619h-1.579v8.126l-1.665-1.544-1.662 1.544v-8.126h-7.498v19.619h-0.001zM13.132 9.708l-8.517-2.836-0.246 0.736-0.191 0.565 8.516 2.836 0.438-1.301zM13.132 13.385l-8.516-2.836-0.434 1.302 8.517 2.836 0.433-1.302zM13.132 17.062l-8.516-2.836-0.434 1.302 8.517 2.836 0.433-1.302zM13.132 20.74l-8.516-2.833-0.434 1.301 8.517 2.833 0.433-1.301zM13.132 23.995l-8.516-2.837-0.435 1.302 8.517 2.836 0.434-1.301z"></path>
</symbol>
<symbol id="gaming" viewBox="0 0 32 32">
<path d="M27.947 26.667c-1.28 0.64-2.987 0.213-3.84-1.067l-2.347-2.987h-11.52l-2.347 2.987c-1.067 1.493-2.987 1.707-4.48 0.64-1.067-0.853-1.493-2.133-1.28-3.2l1.493-7.893c0.427-2.56 2.773-4.48 5.333-4.48v0h5.973v-3.2c0-1.707 1.28-3.2 2.987-3.2h6.613c0.64 0 1.067 0.427 1.067 1.067s-0.427 1.067-1.067 1.067h-6.4c-0.64 0-1.067 0.427-1.067 0.853 0 0 0 0.213 0 0.213v3.2h5.973c2.56 0 4.907 1.92 5.333 4.48v0l1.493 7.893c0.213 1.493-0.427 2.987-1.92 3.627zM12.8 16c0-1.707-1.493-3.2-3.2-3.2s-3.2 1.493-3.2 3.2 1.493 3.2 3.2 3.2 3.2-1.493 3.2-3.2zM25.6 16c0-0.64-0.427-1.067-1.067-1.067h-1.067v-1.067c0-0.64-0.427-1.067-1.067-1.067s-1.067 0.427-1.067 1.067v1.067h-1.067c-0.64 0-1.067 0.427-1.067 1.067s0.427 1.067 1.067 1.067h1.067v1.067c0 0.64 0.427 1.067 1.067 1.067s1.067-0.427 1.067-1.067v-1.067h1.067c0.64 0 1.067-0.427 1.067-1.067z"></path>
</symbol>
</defs>
</svg>
